<?xml version="1.0" standalone="no"?>
<!DOCTYPE svg PUBLIC "-//W3C//DTD SVG 20010904//EN"
 "http://www.w3.org/TR/2001/REC-SVG-20010904/DTD/svg10.dtd">
<svg version="1.0" xmlns="http://www.w3.org/2000/svg"
 width="2475.000000pt" height="337.000000pt" viewBox="0 0 2475.000000 337.000000"
 preserveAspectRatio="xMidYMid meet">
<metadata>
Created by potrace 1.15, written by Peter Selinger 2001-2017
</metadata>
<g transform="translate(0.000000,337.000000) scale(0.100000,-0.100000)"
fill="#000000" stroke="none">
<path d="M773 3036 c-124 -30 -257 -123 -321 -224 -100 -156 -100 -387 -1
-543 42 -67 126 -142 197 -178 128 -64 126 -64 695 -69 l517 -3 0 320 0 321
-355 0 -355 0 0 -110 0 -110 185 0 185 0 0 -85 0 -85 -278 0 c-307 0 -345 5
-420 59 -22 17 -53 52 -69 78 -25 42 -28 58 -28 133 0 75 3 91 28 132 33 56
92 100 167 122 46 14 119 16 497 16 l443 0 0 120 0 120 -517 -1 c-381 0 -532
-4 -570 -13z"/>
<path d="M2092 2538 l3 -513 593 -3 592 -2 0 125 0 125 -425 0 -425 0 0 85 0
85 425 0 425 0 0 110 0 110 -425 0 -425 0 0 75 0 75 425 0 425 0 0 120 0 120
-595 0 -595 0 2 -512z"/>
<path d="M3492 2538 l3 -513 162 -3 163 -2 2 405 3 406 349 -406 348 -405 199
0 199 0 0 515 0 515 -155 0 -155 0 -2 -335 -3 -336 -288 336 -287 335 -270 0
-270 0 2 -512z"/>
<path d="M5150 2535 l0 -515 593 2 592 3 3 123 3 122 -426 0 -425 0 0 85 0 85
425 0 425 0 0 110 0 110 -425 0 -425 0 0 75 0 75 425 0 425 0 0 120 0 120
-595 0 -595 0 0 -515z"/>
<path d="M6550 2535 l0 -515 170 0 170 0 0 165 0 165 213 0 213 0 119 -165
119 -165 188 0 c103 0 188 3 188 6 0 4 -56 82 -125 174 -69 92 -125 169 -125
172 0 3 27 15 60 27 118 43 190 124 211 235 28 152 -40 295 -171 361 -106 54
-121 55 -697 55 l-533 0 0 -515z m941 285 c62 -12 95 -39 110 -91 10 -31 9
-43 -7 -76 -35 -71 -47 -73 -396 -73 l-308 0 0 125 0 125 274 0 c150 0 297 -5
327 -10z"/>
<path d="M8356 2538 l-336 -513 182 -3 c100 -1 188 0 194 2 7 3 38 48 69 100
l57 96 405 0 404 0 64 -100 65 -100 201 0 c177 0 200 2 195 15 -3 9 -152 241
-332 515 l-326 500 -253 0 -253 0 -336 -512z m708 132 c69 -110 126 -202 126
-205 0 -3 -115 -5 -255 -5 -162 0 -255 4 -255 10 0 14 242 400 251 400 4 0 64
-90 133 -200z"/>
<path d="M9980 2535 l0 -515 588 2 587 3 3 123 3 122 -426 0 -425 0 0 390 0
390 -165 0 -165 0 0 -515z"/>
<path d="M12032 2538 l3 -513 535 0 c487 0 541 2 600 18 188 53 331 189 376
361 8 28 14 89 14 136 0 47 -6 108 -14 136 -35 132 -135 253 -258 313 -125 61
-130 61 -720 61 l-538 0 2 -512z m1040 234 c107 -53 155 -137 145 -259 -9
-115 -91 -207 -207 -232 -30 -7 -171 -11 -345 -11 l-295 0 0 271 0 270 318 -3
317 -3 67 -33z"/>
<path d="M13849 2713 l331 -336 0 -179 0 -178 165 0 165 0 0 177 0 178 337
337 338 338 -205 0 -205 0 -200 -200 c-110 -110 -204 -200 -210 -200 -6 0
-100 90 -210 200 l-200 200 -218 0 -219 0 331 -337z"/>
<path d="M15300 2535 l0 -515 160 0 160 0 0 361 c0 199 4 359 9 357 4 -1 158
-164 341 -360 l333 -358 204 0 203 0 0 515 0 515 -155 0 -155 0 -2 -336 -3
-337 -310 336 -310 336 -237 1 -238 0 0 -515z"/>
<path d="M17386 2923 c-46 -71 -196 -300 -334 -511 -139 -211 -252 -385 -252
-388 0 -2 86 -3 192 -2 l192 3 59 98 58 97 404 0 404 0 65 -100 66 -100 201 0
c158 0 200 3 196 13 -2 7 -152 238 -333 515 l-328 502 -253 0 -254 0 -83 -127z
m459 -257 c69 -109 124 -200 122 -202 -2 -3 -119 -3 -261 -2 l-256 3 126 203
c69 112 130 202 135 200 5 -2 65 -92 134 -202z"/>
<path d="M18752 2538 l3 -513 160 0 160 0 5 395 5 395 219 -397 219 -398 163
0 162 0 223 397 224 397 5 -395 5 -394 158 -3 157 -3 0 516 0 515 -267 0 -268
0 -193 -360 c-107 -198 -197 -360 -200 -360 -4 0 -94 162 -200 360 l-194 360
-274 0 -274 0 2 -512z"/>
<path d="M20852 2538 l3 -513 168 -3 167 -2 0 515 0 515 -170 0 -170 0 2 -512z"/>
<path d="M21771 3034 c-238 -64 -391 -258 -391 -494 0 -229 136 -411 363 -487
l82 -27 478 -4 477 -4 0 126 0 125 -422 3 c-417 3 -424 3 -473 26 -27 13 -65
37 -83 55 -134 128 -92 350 81 428 52 24 55 24 475 27 l422 3 0 119 0 120
-477 -1 c-386 0 -488 -3 -532 -15z"/>
<path d="M23182 3033 c-61 -21 -144 -102 -173 -165 -31 -72 -33 -192 -2 -260
28 -62 94 -132 151 -160 46 -22 55 -23 434 -28 l386 -5 26 -24 c31 -29 34 -69
7 -102 l-19 -24 -496 -3 -496 -3 0 -120 0 -120 553 3 552 3 59 24 c73 29 139
89 174 156 36 72 42 179 13 256 -29 75 -88 141 -159 176 l-57 28 -380 5 c-209
3 -388 9 -398 14 -44 21 -50 85 -11 115 26 21 36 21 510 21 l484 0 0 115 0
115 -557 -1 c-471 0 -565 -3 -601 -16z"/>
<path d="M6472 1620 c-110 -23 -206 -92 -243 -174 -26 -58 -26 -166 2 -223 43
-89 144 -152 353 -218 185 -59 241 -114 233 -227 -4 -74 -40 -122 -122 -163
-53 -26 -70 -30 -145 -30 -58 0 -100 6 -132 18 -59 23 -115 83 -123 134 -11
63 -11 63 -66 63 l-52 0 7 -42 c10 -62 51 -142 93 -179 21 -17 62 -44 93 -58
47 -22 68 -26 150 -25 256 1 401 106 404 294 1 84 -23 148 -74 194 -52 47 -90
65 -250 121 -168 59 -197 74 -243 124 -85 94 -53 222 72 279 80 38 203 38 276
2 53 -27 95 -78 95 -116 0 -22 4 -24 55 -24 l54 0 -13 45 c-41 133 -138 199
-311 210 -38 2 -89 0 -113 -5z"/>
<path d="M530 1061 l0 -539 39 -4 c22 -2 45 -2 50 0 8 3 11 159 11 500 l1 497
207 -497 207 -498 50 0 51 0 204 493 c111 270 207 496 211 501 5 6 9 -210 9
-492 l0 -502 45 0 45 0 0 540 0 541 -75 -3 -76 -3 -204 -464 c-112 -255 -206
-465 -208 -467 -4 -4 -96 204 -312 709 l-97 227 -79 0 -79 0 0 -539z"/>
<path d="M8683 1450 l-43 -19 0 -81 0 -80 -75 0 -75 0 0 -40 0 -40 75 0 75 0
0 -247 c0 -297 8 -364 46 -404 35 -37 113 -55 180 -43 47 9 49 10 52 46 l3 36
-59 -1 c-73 -2 -107 18 -121 70 -6 22 -11 146 -11 291 l0 252 90 0 90 0 0 40
0 39 -87 3 -88 3 -5 97 -5 97 -42 -19z"/>
<path d="M2376 1270 c-60 -24 -93 -53 -117 -105 -33 -71 -20 -155 32 -205 35
-33 92 -56 212 -84 59 -14 125 -35 147 -46 49 -25 74 -70 67 -120 -11 -87 -83
-134 -203 -133 -112 1 -181 41 -200 117 -6 23 -11 26 -54 26 l-47 0 7 -39 c16
-90 80 -149 190 -177 103 -26 225 -6 312 51 90 60 122 198 65 284 -34 52 -87
78 -242 120 -183 49 -205 63 -205 130 0 77 63 121 172 121 97 -1 178 -47 178
-102 0 -15 9 -18 50 -18 41 0 50 3 49 18 -3 66 -65 142 -137 166 -66 23 -213
21 -276 -4z"/>
<path d="M3149 1277 c-64 -24 -109 -58 -129 -98 -27 -52 -27 -143 0 -187 34
-55 79 -75 299 -133 113 -30 154 -65 154 -133 0 -57 -23 -91 -83 -125 -57 -32
-164 -33 -233 -3 -47 21 -87 69 -87 105 0 14 -9 17 -50 17 -55 0 -56 -2 -39
-63 59 -215 484 -218 573 -5 32 76 15 168 -40 220 -38 35 -73 49 -222 88 -140
37 -182 61 -196 108 -23 80 52 141 173 142 87 0 143 -27 168 -80 17 -38 20
-39 66 -40 41 0 48 3 43 18 -2 9 -8 28 -11 42 -12 41 -53 89 -98 112 -53 28
-229 37 -288 15z"/>
<path d="M4282 1273 c-91 -32 -185 -149 -211 -264 -15 -65 -13 -177 4 -244 20
-75 69 -158 117 -196 68 -54 124 -73 218 -73 92 0 150 19 218 71 79 60 132
192 132 328 0 184 -88 330 -230 380 -55 19 -191 18 -248 -2z m236 -89 c141
-70 192 -302 105 -474 -86 -168 -317 -182 -409 -24 -42 72 -56 123 -55 209 0
237 177 380 359 289z"/>
<path d="M5180 1277 c-19 -6 -59 -35 -87 -63 l-53 -53 0 55 0 54 -45 0 -45 0
0 -375 0 -375 44 0 45 0 3 258 3 257 28 58 c39 79 87 110 177 115 84 5 137
-19 177 -80 l28 -41 3 -284 3 -283 45 0 45 0 -3 288 c-3 275 -4 289 -26 337
-48 105 -113 145 -232 144 -41 -1 -91 -6 -110 -12z"/>
<path d="M7936 1270 c-119 -47 -170 -164 -116 -270 28 -55 87 -86 232 -122 67
-16 139 -39 160 -49 76 -39 89 -131 27 -195 -41 -43 -87 -58 -169 -57 -109 2
-177 42 -195 116 -7 25 -11 27 -57 27 l-50 0 7 -32 c20 -94 86 -157 195 -184
104 -26 243 -2 316 55 121 95 117 278 -7 342 -22 11 -95 35 -162 53 -199 55
-217 67 -217 139 0 76 61 117 172 117 97 -1 178 -47 178 -102 0 -15 9 -18 50
-18 58 0 62 9 31 75 -42 90 -113 125 -255 125 -65 -1 -105 -6 -140 -20z"/>
<path d="M9231 1259 c-73 -37 -128 -100 -162 -186 -31 -79 -33 -259 -5 -346
65 -198 255 -283 460 -206 64 23 126 85 160 159 35 75 34 80 -18 80 -41 0 -45
-2 -55 -33 -44 -131 -201 -189 -336 -122 -79 38 -135 132 -135 226 l0 39 291
0 292 0 -6 74 c-15 172 -89 287 -214 332 -21 7 -77 13 -124 14 -76 0 -93 -3
-148 -31z m256 -70 c71 -34 133 -130 133 -205 l0 -23 -236 -3 c-177 -2 -238 0
-241 9 -3 7 2 36 11 65 19 65 75 134 130 159 57 26 148 25 203 -2z"/>
<path d="M10150 1277 c-19 -6 -59 -35 -87 -63 l-53 -53 0 55 0 54 -47 0 -48 0
3 -375 2 -375 44 0 45 0 3 258 3 257 28 58 c38 76 86 109 168 115 106 8 177
-36 208 -127 7 -22 11 -127 11 -297 l0 -264 45 0 45 0 0 243 c0 266 6 309 55
374 81 106 271 96 335 -18 25 -44 25 -47 28 -321 l3 -278 46 0 45 0 -4 283
c-5 321 -11 350 -82 422 -48 48 -98 65 -188 65 -83 0 -150 -33 -214 -103 -26
-29 -49 -47 -51 -40 -13 38 -67 93 -114 117 -43 21 -66 26 -123 25 -39 -1 -87
-6 -106 -12z"/>
<path d="M11382 1274 c-130 -48 -183 -205 -101 -298 38 -44 91 -68 222 -100
173 -42 217 -73 217 -151 0 -93 -78 -149 -205 -148 -38 1 -83 6 -100 13 -42
16 -83 57 -96 97 -10 31 -14 33 -55 33 -41 0 -44 -2 -44 -27 0 -46 39 -111 85
-143 150 -103 414 -59 486 81 31 62 35 127 11 181 -34 77 -57 89 -329 167 -94
28 -133 60 -133 111 0 48 36 94 87 111 21 7 66 10 110 7 85 -6 118 -24 146
-81 17 -35 22 -37 64 -37 l46 0 -6 36 c-9 56 -49 109 -104 135 -40 20 -66 24
-153 26 -75 2 -117 -2 -148 -13z"/>
<path d="M1930 895 l0 -375 45 0 45 0 0 375 0 375 -45 0 -45 0 0 -375z"/>
<path d="M3780 895 l0 -375 45 0 45 0 0 375 0 375 -45 0 -45 0 0 -375z"/>
<path d="M7046 1138 c183 -440 254 -615 254 -624 0 -5 -25 -72 -55 -149 -30
-77 -55 -141 -55 -142 0 -10 89 -1 97 10 11 13 413 1017 413 1030 0 4 -21 7
-47 5 l-47 -3 -118 -295 c-65 -162 -121 -303 -126 -313 -5 -13 -41 66 -134
295 l-126 313 -56 3 -55 3 55 -133z"/>
</g>
</svg>
