<!--?xml version="1.0" encoding="UTF-8" standalone="no"?-->
<svg xmlns:dc="http://purl.org/dc/elements/1.1/" xmlns:cc="http://creativecommons.org/ns#" xmlns:rdf="http://www.w3.org/1999/02/22-rdf-syntax-ns#" xmlns:svg="http://www.w3.org/2000/svg" xmlns="http://www.w3.org/2000/svg" xmlns:sodipodi="http://sodipodi.sourceforge.net/DTD/sodipodi-0.dtd" xmlns:inkscape="http://www.inkscape.org/namespaces/inkscape" width="24" height="24" viewBox="0 0 24 24" fill="none" stroke="currentColor" stroke-width="2" stroke-linecap="round" stroke-linejoin="round" class="feather feather-github" version="1.1" id="svg1392" sodipodi:docname="github.svg" inkscape:version="0.92.2 (5c3e80d, 2017-08-06)" style="">
  <metadata id="metadata1398">
    <rdf:rdf>
      <cc:work rdf:about="">
        <dc:format>image/svg+xml</dc:format>
        <dc:type rdf:resource="http://purl.org/dc/dcmitype/StillImage"></dc:type>
      </cc:work>
    </rdf:rdf>
  </metadata>
  <defs id="defs1396"></defs>
  <sodipodi:namedview pagecolor="#ffffff" bordercolor="#666666" borderopacity="1" objecttolerance="10" gridtolerance="10" guidetolerance="10" inkscape:pageopacity="0" inkscape:pageshadow="2" inkscape:window-width="3000" inkscape:window-height="1875" id="namedview1394" showgrid="false" inkscape:zoom="9.8333333" inkscape:cx="-8.440678" inkscape:cy="12" inkscape:window-x="-13" inkscape:window-y="-13" inkscape:window-maximized="1" inkscape:current-layer="svg1392"></sodipodi:namedview>
  <path d="M9 19c-5 1.5-5-2.5-7-3m14 6v-3.87a3.37 3.37 0 0 0-.94-2.61c3.14-.35 6.44-1.54 6.44-7A5.44 5.44 0 0 0 20 4.77 5.07 5.07 0 0 0 19.91 1S18.73.65 16 2.48a13.38 13.38 0 0 0-7 0C6.27.65 5.09 1 5.09 1A5.07 5.07 0 0 0 5 4.77a5.44 5.44 0 0 0-1.5 3.78c0 5.42 3.3 6.61 6.44 7A3.37 3.37 0 0 0 9 18.13V22" id="path1390" style="stroke:#f8f9f9;stroke-opacity:1" class="OVihfnID_0"></path>
<style>.OVihfnID_0{stroke-dasharray:75 77;stroke-dashoffset:76;animation:OVihfnID_draw 2000ms linear 0ms forwards;}@keyframes OVihfnID_draw{100%{stroke-dashoffset:0;}}@keyframes OVihfnID_fade{0%{stroke-opacity:1;}94.44444444444444%{stroke-opacity:1;}100%{stroke-opacity:0;}}</style></svg>
