<!--?xml version="1.0" encoding="UTF-8" standalone="no"?-->
<svg xmlns:dc="http://purl.org/dc/elements/1.1/" xmlns:cc="http://creativecommons.org/ns#" xmlns:rdf="http://www.w3.org/1999/02/22-rdf-syntax-ns#" xmlns:svg="http://www.w3.org/2000/svg" xmlns="http://www.w3.org/2000/svg" xmlns:sodipodi="http://sodipodi.sourceforge.net/DTD/sodipodi-0.dtd" xmlns:inkscape="http://www.inkscape.org/namespaces/inkscape" width="24" height="24" viewBox="0 0 24 24" fill="none" stroke="currentColor" stroke-width="2" stroke-linecap="round" stroke-linejoin="round" class="feather feather-linkedin" version="1.1" id="svg8" sodipodi:docname="linkedin.svg" inkscape:version="0.92.2 (5c3e80d, 2017-08-06)" style="">
  <metadata id="metadata14">
    <rdf:rdf>
      <cc:work rdf:about="">
        <dc:format>image/svg+xml</dc:format>
        <dc:type rdf:resource="http://purl.org/dc/dcmitype/StillImage"></dc:type>
      </cc:work>
    </rdf:rdf>
  </metadata>
  <defs id="defs12"></defs>
  <sodipodi:namedview pagecolor="#ffffff" bordercolor="#666666" borderopacity="1" objecttolerance="10" gridtolerance="10" guidetolerance="10" inkscape:pageopacity="0" inkscape:pageshadow="2" inkscape:window-width="3840" inkscape:window-height="2035" id="namedview10" showgrid="false" inkscape:zoom="9.8333333" inkscape:cx="-30.40678" inkscape:cy="20.135593" inkscape:window-x="5987" inkscape:window-y="-13" inkscape:window-maximized="1" inkscape:current-layer="svg8"></sodipodi:namedview>
  <path d="M16 8a6 6 0 0 1 6 6v7h-4v-7a2 2 0 0 0-2-2 2 2 0 0 0-2 2v7h-4v-7a6 6 0 0 1 6-6z" id="path2" style="opacity:1;stroke:#f8f9f9;stroke-opacity:1;fill:none;fill-opacity:1" class="qDgKoNFY_0"></path>
  <path width="4" height="12" id="rect4" style="opacity:1;stroke:#f8f9f9;stroke-opacity:1;fill:none;fill-opacity:1" d="M2 9 L6 9 L6 21 L2 21 Z" class="qDgKoNFY_1"></path>
  <path id="circle6" style="opacity:1;stroke:#f8f9f9;stroke-opacity:1;fill:none;fill-opacity:1" d="M2,4A2,2 0,1,1 6,4A2,2 0,1,1 2,4" class="qDgKoNFY_2"></path>
<style>.qDgKoNFY_0{stroke-dasharray:62 64;stroke-dashoffset:63;animation:qDgKoNFY_draw 2000ms linear 0ms forwards;}.qDgKoNFY_1{stroke-dasharray:32 34;stroke-dashoffset:33;animation:qDgKoNFY_draw 2000ms linear 500ms forwards;}.qDgKoNFY_2{stroke-dasharray:13 15;stroke-dashoffset:14;animation:qDgKoNFY_draw 2000ms linear 1000ms forwards;}@keyframes qDgKoNFY_draw{100%{stroke-dashoffset:0;}}@keyframes qDgKoNFY_fade{0%{stroke-opacity:1;}94.44444444444444%{stroke-opacity:1;}100%{stroke-opacity:0;}}</style></svg>
